<svg id="SvgjsSvg1001" width="288" height="288" xmlns="http://www.w3.org/2000/svg" version="1.1" xmlns:xlink="http://www.w3.org/1999/xlink" xmlns:svgjs="http://svgjs.com/svgjs"><defs id="SvgjsDefs1002"></defs><g id="SvgjsG1008"><svg xmlns="http://www.w3.org/2000/svg" viewBox="0 0 300.44 374.29" width="288" height="288"><g data-name="Capa 2" fill="#d8a39c" class="color000 svgShape"><g data-name="Capa 1" fill="#d8a39c" class="color000 svgShape"><path d="M91.15,13.08c.14-1.44.21-2.35.31-3.26C92.17,3.71,95.8.09,102,.07q47.85-.13,95.7,0c7.08,0,10,3.52,11.06,12.81,1.44.06,3,.19,4.5.19,15.95,0,31.9,0,47.85,0,23.36.09,39.27,16,39.28,39.4q.06,141.15,0,282.29c0,23.29-16.13,39.45-39.34,39.46q-110.86.08-221.72,0c-23,0-39.3-16.15-39.31-39.09Q0,193.62,0,52.08c0-22.9,16-38.86,38.91-39,15.81-.08,31.63,0,47.45,0ZM54.54,64.31V300.53H245.91V64.31Zm36.38-31H86.58q-23.53,0-47.06,0c-12.2,0-19.22,7.12-19.22,19.41q0,140.77,0,281.55c0,12.62,6.84,19.53,19.44,19.53q110.49,0,221,0c12.6,0,19.43-6.91,19.44-19.53q0-140.78,0-281.55c0-12.29-7-19.38-19.21-19.41q-23.93,0-47.86,0c-1.29,0-2.57.14-4,.23V43.68h44.06c9.91,0,13.58,3.62,13.58,13.37q0,125.43,0,250.84c0,9.62-3.67,13.33-13.19,13.33H46.87c-9.32,0-13.1-3.75-13.1-13q0-125.82,0-251.64c0-9,3.83-12.86,12.86-12.88,13.16,0,26.32,0,39.49,0,1.54,0,3.08-.16,4.8-.26Zm20.8,10.43h76.51V20.31H111.72Z" fill="#d8a39c" class="color000 svgShape"></path><path d="M149.79 187.05H92a28.49 28.49 0 01-3.58-.08 7.44 7.44 0 010-14.81 19.08 19.08 0 012.39-.07H209.12c.53 0 1.07 0 1.6 0 4.58.3 7.54 3.33 7.45 7.64a7.18 7.18 0 01-7.41 7.26c-6.11.16-12.22.05-18.33.05zM150 91.38q29.89 0 59.77 0c5.34 0 8.45 2.8 8.44 7.38A7.06 7.06 0 01212.1 106a26 26 0 01-4.76.26H92.58c-1.06 0-2.13 0-3.18 0-4.64-.34-7.72-3.35-7.71-7.49 0-4.37 3.16-7.36 8.11-7.37Q119.88 91.34 150 91.38zM139.45 146.55q-24.93 0-49.86 0c-4 0-6.66-1.85-7.67-5.65A6.67 6.67 0 0185.13 133a10 10 0 014.9-1.28q49.86-.11 99.72 0c5.16 0 8.42 3.2 8.3 7.67s-3.28 7.13-8.34 7.14C173 146.58 156.21 146.55 139.45 146.55zM140.25 212.58c16.62 0 33.24 0 49.86 0 4.25 0 7.13 2.32 7.83 5.95a7.28 7.28 0 01-4.68 8.28 19.07 19.07 0 01-5.51.6q-24.33.06-48.66 0H92.42c-1.06 0-2.13 0-3.19 0-4.61-.36-7.65-3.46-7.54-7.63s3.2-7.15 7.9-7.18c11.57-.07 23.14 0 34.71 0zM119.42 267.76c-9.69 0-19.38 0-29.07 0-5.35 0-8.56-2.75-8.66-7.23s3.31-7.65 8.73-7.66q29.28-.08 58.55 0c5.51 0 8.71 3 8.59 7.74-.11 4.52-3.23 7.13-8.67 7.15C139.07 267.78 129.25 267.76 119.42 267.76z" fill="#d8a39c" class="color000 svgShape"></path></g></g></svg></g></svg>