<svg xmlns="http://www.w3.org/2000/svg" viewBox="0 0 52.9 68"><defs><style>.cls-1{fill:#fff;}</style></defs><title>Recurso 5</title><g id="Capa_2" data-name="Capa 2"><g id="Capa_1-2" data-name="Capa 1"><path class="cls-1" d="M25.42,68c-3.39-1-5.55-3-5.91-6.78h13.9C33.11,65,30.94,67,27.59,68Z"/><path class="cls-1" d="M26.45,57.48c-7.39,0-14.79,0-22.18,0-1.75,0-3.22-.36-3.95-2.1A3.44,3.44,0,0,1,1.64,51c3.35-2.4,4.28-5.53,4-9.59a91.06,91.06,0,0,1,.26-15.49c1-8.89,5.54-15.32,14.41-18.09a1.17,1.17,0,0,0,1-1.43,11.46,11.46,0,0,1,0-1.55A5,5,0,0,1,26.53,0a4.91,4.91,0,0,1,5.08,5c-.05,2,.55,2.71,2.44,3.41,8.06,3,12.21,9.29,13,17.52.62,6.41.32,12.91.35,19.37a3.63,3.63,0,0,0,1.27,3.11c1,.86,1.89,1.92,2.86,2.84A3.53,3.53,0,0,1,49,57.49C41.45,57.46,34,57.48,26.45,57.48Z"/></g></g></svg>