<svg xmlns="http://www.w3.org/2000/svg" viewBox="0 0 220.67 578.86"><g id="be28308f-3548-4c00-a879-6114b61abc51" data-name="Capa 2"><g id="b325fb40-1489-4f75-8ea0-6639c2b78b30" data-name="Capa 1"><path d="M166,543c.52,4.5,1,9,1.57,13.5.13,1.11.42,2.2.54,3.32.65,6.17-.43,7.3-6.52,6.87-.79-.05-1.59-.15-2.74-.25q-1-11.1-2.1-22.22c-.14-1.43-.4-2.85-.59-4.27-.64-4.77-2.11-9.29,3.2-13.16,3-2.17,4.57-6.5,6.19-10.12a11.66,11.66,0,0,0,.79-7c-5.31-22.16-11-44.22-16.22-66.4a82.46,82.46,0,0,1-2.3-18.49c0-16.93-5-32.36-12.94-47.06-12-22.2-23.86-44.48-36-66.6C96.47,306.76,93,303,90,298.88l-1.47.24c-.66,2.15-1.51,4.26-1.95,6.45C81.48,331.4,76.55,357.26,71.24,383c-2,9.52-5.9,18.73-7,28.3-2.45,21.89-3.86,43.91-5.37,65.9-.73,10.49-.86,21-.94,31.55,0,2.79,1.34,5.55,1.72,8.38,1.14,8.36,2.37,16.71,3.06,25.11.75,9.05,4,17.19,7.6,25.34,1.11,2.51.87,5.74.74,8.62,0,1-1.71,2.66-2.58,2.62-6-.26-12.29,0-18-1.61-8.83-2.5-12-7.91-11.84-17.33,0-3.19.49-6.4.28-9.57-.11-1.79-1.18-3.53-2-5.91,1.87-1.33,1.28-3.11.39-6.19-1.21-4.21.55-9.21.63-13.87.1-5.43-.19-10.87-.4-16.3,0-.92-.66-1.79-.77-2.72q-4-34-7.88-68c-1.68-14.63.3-29,3.32-43.27,5.47-25.91,5.73-52.06,2.91-78.28-2-18.32-3.91-36.65.77-54.82,3.72-14.47,9-28.42,18.28-40.29,7-8.9,14.94-17,22-25.84a20.87,20.87,0,0,0,4.37-10.1c1.84-16.3-2-31.91-8.63-46.51-3-6.73-8.64-12.76-14.28-17.75A386.41,386.41,0,0,1,3,61.43c-5.9-8-2.75-17.48,6.64-20a179.17,179.17,0,0,1,56.53-5.56c1.32.07,3-1.21,4-2.3,4.4-4.54,8.19-9.77,13-13.73a66,66,0,0,1,15.51-9.13c2.72-1.18,6.37-.27,9.6-.21,2.74.05,5.94,1.23,8.14.19,10.84-5.11,22.65-6.35,34.13-8.25C162.54.47,174.8.54,186.92,0c7.45-.31,10.48,2.6,9.87,10.31-1,12.24-1.68,24.63-4.32,36.56a476.24,476.24,0,0,1-13.31,46.44c-4.89,14.76-5.72,30.08-8,45.2-4,26.24-9.41,51.88-20.74,76.38-5.61,12.11-6.43,26.52-8.88,40-1.91,10.46,1.43,19.82,6.23,29.29,12.82,25.34,21.08,52.36,27.13,80.07,1.9,8.71,4.17,17.35,6.23,26a23,23,0,0,1,.47,3.8c1.91,30.61,3.1,61.29,6,91.81,1.41,14.93,5.91,29.57,9.07,44.33,1.63,7.61,3.53,15.17,5,22.82.58,3,2,4.41,4.6,6,4.88,3.07,9.19,7.06,14.43,11.22-1.91.81-3.37,2-4.84,2-7.49.06-15,.16-22.46-.43-5.9-.46-7.91-5.81-10.65-10.1-3.17-5-6.36-9.91-9.9-14.6-1.44-1.92-3.8-3.15-5.75-4.7ZM135.5,85.57c4,5.2,7.71,5.67,11.21,1,4.62-6.23,9.27-12.68,12.45-19.69,4.9-10.84,8.61-22.22,12.75-33.39,2.32-6.24,1.15-8.43-5.44-8.7-10.34-.42-20.71-.55-31.05-.26-4.43.12-8.82,1.57-14.46,2.65,3.83,7.23,7.16,13.16,10.14,19.27a93.48,93.48,0,0,1,3.68,9.88c.86,2.44.95,5.61,2.6,7.18,2.61,2.49,2.31,4.35,1,7.11-.89,1.85-2,5.07-1.19,6,1.53,1.64,4.41,2,6.95,3C146.24,86.62,139.1,83.77,135.5,85.57ZM33.32,62c9.2,8.13,17.85,15.82,26.55,23.46A52.51,52.51,0,0,0,93.69,99.05c1.92.06,3.88-1.29,5.82-2-1.12-1.48-2.13-3-3.36-4.4-5.7-6.37-12.17-12.21-17-19.2-3.37-4.9-4.39-11.39-6.74-17.06-.47-1.16-2.27-2.61-3.35-2.53-6,.45-12,1.29-18,2.08C44.6,56.81,38.46,58.6,33.32,62Z"/></g></g></svg>