<svg xmlns="http://www.w3.org/2000/svg" viewBox="0 0 59.84 59.85"><defs><style>.cls-1{fill:#fff;}</style></defs><title>Recurso 4</title><g id="Capa_2" data-name="Capa 2"><g id="Capa_1-2" data-name="Capa 1"><path class="cls-1" d="M43.11,39,58.05,53.86c2,2,2.33,3.66,1,5.08s-3.17,1.16-5.2-.88L40,44.27c-.38-.37-.77-.73-1.15-1.08A24.35,24.35,0,0,1,5.09,39,24.13,24.13,0,0,1,38.6,4.81,24.44,24.44,0,0,1,43.11,39ZM6,24.09A18.12,18.12,0,1,0,24.14,6,18.1,18.1,0,0,0,6,24.09Z"/><path class="cls-1" d="M23.47,38.09A14.1,14.1,0,0,1,10,24.34a3,3,0,0,1,2.85-3.23A3,3,0,0,1,16,24.06c.39,4.84,3.08,7.59,8,8.15,2.11.24,3.16,1.31,3.07,3.09S25.62,38.13,23.47,38.09Z"/></g></g></svg>