<svg xmlns="http://www.w3.org/2000/svg" viewBox="0 0 32.19 32.25"><defs><style>.cls-1{fill:#dfb1a6;}</style></defs><title>Recurso 6</title><g id="Capa_2" data-name="Capa 2"><g id="Capa_1-2" data-name="Capa 1"><path class="cls-1" d="M6.17,32.19c.22-.69.45-1.39.68-2.08l3-9.23c.07-.2.12-.41.21-.61s0-.28-.13-.39L.15,12.44,0,12.31H1.23L12,12.5c.21,0,.25-.1.3-.26L15.16,3,16,.2l.08-.2c0,.11.07.18.09.25C17.34,4.13,18.46,8,19.6,11.91c.14.48,0,.4.53.4l11.56,0a1.77,1.77,0,0,1,.5.05L31,13.22l-8.63,6.37c-.16.11-.15.22-.1.38q1.85,6,3.7,11.91c0,.1.06.2.1.37l-.3-.22-9.29-7.37a.29.29,0,0,0-.43,0L6.44,32.05l-.23.17Z"/></g></g></svg>