<svg xmlns="http://www.w3.org/2000/svg" xmlns:xlink="http://www.w3.org/1999/xlink" viewBox="0 0 773.52 318"><defs><style>.cls-1{font-size:56.02px;font-family:ConthraxSb-Regular, Conthrax;}.cls-1,.cls-5{fill:#d8a39c;}.cls-2{fill:url(#Degradado_sin_nombre_6);}.cls-3{fill:url(#Degradado_sin_nombre_6-2);}.cls-4{fill:#35070b;}.cls-6{fill:#762636;}</style><radialGradient id="Degradado_sin_nombre_6" cx="356.37" cy="74.47" r="83.52" gradientTransform="translate(277.35) scale(1.11 1)" gradientUnits="userSpaceOnUse"><stop offset="0" stop-color="#cd6b8a"/><stop offset="1" stop-color="#35070b"/></radialGradient><radialGradient id="Degradado_sin_nombre_6-2" cx="356.37" cy="107.6" r="71.24" xlink:href="#Degradado_sin_nombre_6"/></defs><title>Recurso 13</title><g id="Capa_2" data-name="Capa 2"><g id="Capa_1-2" data-name="Capa 1"><text class="cls-1" transform="translate(34.22 82.81)">CLANDESTINO</text><path class="cls-2" d="M570.05,71S606.39,7.89,630.61,3.6s23,11.64,39.36,5.51,20.37-12.79,31.88-5.92,38.35,25.53,53.57,43.59C768,61.73,773.52,71.6,773.52,71.6s-20.58,50.85-33.3,62.49S690,151.85,673.6,147s-27.25,6.13-48.44-1.22S584,118.16,570.05,71Z"/><path class="cls-3" d="M570.05,71s18.45,10.72,43,0,64.49,5.35,64.49,5.35,28.16-13.64,48.75-9,35.46,11.35,47.25,4.3c0,0-7.25,20.4-17.22,37.69,0,0-8.43,15.63-13.7,22.28s-20.92,13.6-34.92,15.26-23,3.75-35.89-.36c0,0-6.63-2.05-18.69.47s-27.88,4.41-51.33-16S570.05,71,570.05,71Z"/><path class="cls-4" d="M570.89,69.55S605.16,33.93,616.36,22s22.75-12.59,36.34-2.76c15.38,11.13,27.88-.85,34.36-4,10.17-4.9,23.17,1.53,38.3,15,13,11.6,46.85,39.3,46.85,39.3S754.8,43.17,736.69,28c-14-11.69-30.22-27.32-41.3-28-8.33-.5-23.6,8.39-23.6,8.39s-7.52,5.39-18.27-1.2S631.4,2.7,624.89,5.55,606.23,20.7,606.23,20.7,578.62,52,570.89,69.55Z"/><path class="cls-4" d="M570.05,71s15.06,6.74,34.44-.61c0,0,19.38-12.26,40.78-5.31s34.36,3.57,42-.41c13.28-6.94,40.37-3.39,56.11,4a45.14,45.14,0,0,0,30.15,2.92s-7.14,9-27.32,4.9-38-4.08-50.87,4.49-21.77,16.34-43.18,5.31-41.2-12-49.68-9.69S576.11,75.48,570.05,71Z"/><path class="cls-5" d="M753.57,162.48c-7.35,4-8,12.86-2.19,23.2-4-.67-6.48-3.15-8.77-5.78-9.21-10.61-20.88-18.37-31.57-27.25a33.93,33.93,0,0,0-20.19-7.53c-8.09-.46-16.17-1-24.25-1.55-2.32-.18-4.61-.76-7.23-.55,1.38.79,2.67,1.91,4.15,2.31,8.38,2.26,16.8,4.33,25.2,6.5,2.1.55,4.18,1.19,6.23,1.88,5.09,1.72,9.09,4.77,11.33,9.77,4.13,9.25,9.67,18,11.32,28.2.29,1.83.45,3.68.7,5.73l-2.77.19-.1.48,2.89.84c-.16,2.33-.25,4.77-.52,7.19a2.15,2.15,0,0,1-1.18,1.45c-6.68,2.28-10.06,7.56-12.58,13.64-4.26-.69-4.67-1.73-4.55-11.52,1.63-.43,3.36-.75,5-1.35,3.25-1.21,4.47-3,4-6.36-.9-6.89-2.39-13.69-6.15-19.62a19.61,19.61,0,0,0-6.15-5.65A108.7,108.7,0,0,0,683,169.46c-5.27-2.37-10.77-4.24-16.21-6.2a7.34,7.34,0,0,0-3.52-.23,113.58,113.58,0,0,0-24,6.92l.21.94c2-.34,4-.56,5.9-1.06,5.53-1.47,11-3.29,16.54-4.52,7.26-1.61,13.54,1.35,19.55,5,3.6,2.19,7,4.78,10.83,6.5a18.5,18.5,0,0,1,11.11,13.31,2.89,2.89,0,0,1-.37,2.32c-3.92,3.85-4.18,8.26-2.33,13.1a10.41,10.41,0,0,1,.3,1.13c-5.54,1-9-1-11.34-6.65l2.11-.29c-.17-.3-.24-.64-.43-.72-4.57-2.08-9.13-4.2-13.75-6.14-2.45-1-5.18-1.46-7.53-2.66a9.75,9.75,0,0,0-10.8.65,22.55,22.55,0,0,1-12.87,3.87,11.21,11.21,0,0,0-1.73.22s0,.16-.21.87l12.87-.9.28.51-15.18,5.88c1.59-.1,3.12-.11,4.62-.31s3.27-.63,5.74-1.13l-10.93,10.19.43.66,6.94-3.82c-2.44,10.5-8.58,19-11.37,28.9.88-1.4,1.81-2.78,2.66-4.21,4.26-7.24,8.82-14.39,10.35-22.8a13.7,13.7,0,0,1,4.54-8.56,25.68,25.68,0,0,0,4.59-5c2-3,4.69-3.46,7.76-2.66,2.76.72,5.39,1.92,8.14,2.69,6.92,1.94,13,4.94,16.5,12.06A59.48,59.48,0,0,1,678,222.61c-8.63,6.42-17.49,12.55-26.4,18.58a187.28,187.28,0,0,0-46.86,45.67c-4.29,5.91-9,7.52-16,5.21-8.77-2.89-15.79-8.53-22-15.13a55.1,55.1,0,0,1-8-10.6c-5.39-9.65-3.56-16.79,5.22-23.5a161.62,161.62,0,0,0,13.75-11.22c8.86-8.42,15.13-18.8,20.16-29.77,8.63-18.83,16.7-37.92,25-56.9,1-2.25,2-4.54,3.14-6.68a17.62,17.62,0,0,1,11-8.62,523,523,0,0,1,56.4-13.45,7.86,7.86,0,0,1,4.55.28c5.12,2.48,10.47,4.75,15,8a287.1,287.1,0,0,1,25.69,20.34C744.27,149.93,748.53,156.39,753.57,162.48ZM628.79,253.87c-4.85,3.11-9.46,7.57-14.91,9.16s-11.85.35-17.74.35c3.11,3.25,7.68,2.86,11.87,3.56l0,.92-14.09.91C603.39,274.45,625.8,264.61,628.79,253.87Zm73.14-95.31c-4.2,0-6.88,2-8.72,6.22Zm-39.06,15c.49-3,.85-5.2,1.21-7.39C662.41,168.2,661,170.24,662.87,173.6Zm29.46-51.93.64.74,5.91-4.45-.7-.92Z"/><path class="cls-5" d="M642,124.78c3-7.52,6.46-15.34,9.1-23.45,3.11-9.51,3.62-19.51,4.5-29.45s2.51-19.95,4-29.89c.68-4.57,1.72-9.09,2.78-13.59a17.93,17.93,0,0,1,2.07-5.07A27,27,0,0,0,668,10c0-1.56,0-3.12,0-5a17.52,17.52,0,0,1,12.07,11.32c2.28,6.05,2.5,12.39,2,18.7-1.44,19.48-3.1,38.94-4.7,58.41-.07,1-.29,1.94-.55,3.64-.56-2.17-.93-3.63-1.3-5.09H675c.12,2.32.14,4.66.37,7,.52,5.1,1.2,10.18,1.64,15.29.07.79-.6,2.26-1.17,2.4C664.35,119.5,652.85,122.21,642,124.78Z"/><path class="cls-5" d="M748.47,174.67c.34-1.94.56-3.9,1.06-5.79.85-3.2,4.65-4.2,6.47-1.45a61.81,61.81,0,0,1,5.86,11.45c1.1,2.78-1.83,7.37-4.66,7.85a5.05,5.05,0,0,1-3.22-1C751,183.74,748.54,178.42,748.47,174.67Z"/><path class="cls-5" d="M729.72,171.73c-5.63,2.17-8.69-1.25-12-4,0,2.84.65,3.67,5,6.84L717.18,178c-4.5-7.8-8.95-15.49-13.4-23.21,1.84-.67,3.79-.22,5.71,1.28C716.06,161.25,722.7,166.32,729.72,171.73Z"/><path class="cls-5" d="M750.09,150.78l-13.91-15.6c6.25-1.7,11.3.23,14.88,6.54C752.84,144.86,752.65,147.7,750.09,150.78Z"/><path class="cls-5" d="M717.7,209.56c-2.1,3.8-4,7.71-6.41,11.3-.65,1-2.77.94-4.92,1.59,1.41-6.93,5.36-10.56,10.24-13.44Z"/><path class="cls-5" d="M703.2,206.47c-3.83-4.8-3.43-9.28.94-12.21C707.17,200.71,706.93,204.42,703.2,206.47Z"/><path class="cls-5" d="M663,21.66q1.4-7.83,2.8-15.66l1,.17c.17,5.43-.41,10.71-2.74,15.69Z"/><path class="cls-6" d="M16.56,83C-1.2,86.21-1.6,111.19,1.44,124.83c5.22,23.47,25.71,41.63,46.42,51.93,48.23,24,106,16.37,157,7.21,28.93-5.19,57.67-11.63,86.85-15.41a588.43,588.43,0,0,1,89.89-4.65c26.69.65,53.89,1.4,80.21,6.19,22.83,4.16,48.57,11.65,61.71,32.5,7.85,12.47,8.65,27.48,10.51,41.7,1.76,13.52,4.84,26.54,12.39,38.09C560.18,303.48,583.8,317.18,609,318c7.73.25,7.72-11.75,0-12-20.89-.68-40.85-12.21-52.3-29.67-13.6-20.76-9-46.07-17.44-68.51-17.78-47.46-79.65-52.11-122.68-54.47-27.33-1.5-54.7-2.23-82.05-.73A657.32,657.32,0,0,0,251.27,163c-52,9.58-106.45,23.93-159.59,15-25.23-4.23-50.92-14.35-67.58-34.6-7-8.45-11.62-18.62-12-29.63-.21-6.22-.22-17.82,7.65-19.25,7.59-1.37,4.37-12.94-3.19-11.57Z"/></g></g></svg>